<?xml version="1.0" encoding="UTF-8" standalone="no"?><!DOCTYPE svg PUBLIC "-//W3C//DTD SVG 1.1//EN" "http://www.w3.org/Graphics/SVG/1.1/DTD/svg11.dtd"><svg width="100%" height="100%" viewBox="0 0 60 60" version="1.1" xmlns="http://www.w3.org/2000/svg" xmlns:xlink="http://www.w3.org/1999/xlink" xml:space="preserve" style="fill-rule:evenodd;clip-rule:evenodd;stroke-linejoin:round;stroke-miterlimit:1.41421;"><g><path d="M10.264,48.752c-1.546,-3.128 -2.674,-7.162 -2.59,-12.232c0.076,-4.635 1.235,-9.186 3.192,-13.388c0.93,-1.997 4.293,-9.484 4.44,-9.805c0.157,-0.345 0.72,-1.64 0.809,-2.841c0.034,-0.471 0.561,-0.733 0.948,-0.464c1.677,1.164 4.791,3.842 4.937,7.76c0.02,0.538 0.678,0.786 1.047,0.394c2.288,-2.439 6.991,-8.796 3.885,-17.365c-0.18,-0.496 0.322,-0.967 0.807,-0.762c3.545,1.504 12.953,6.799 11.281,20.177c0,0 -0.296,1.848 -0.67,3.263c-0.139,0.523 0.425,0.948 0.893,0.676c1.537,-0.892 3.817,-3.018 3.386,-7.666c-0.049,-0.528 0.55,-0.861 0.972,-0.54c3.059,2.327 10.923,9.908 8.146,24.794c0,0 -2.984,18.323 -21.724,19.158c-0.014,0 -0.028,0.001 -0.042,0.003c-0.118,0.015 -0.793,0.095 -1.867,0.085c-7.591,-0.065 -14.487,-4.442 -17.85,-11.247Z" style="fill:#ff8a33;fill-rule:nonzero;"/><path d="M51.746,40.753c0,0 -2.986,18.337 -21.746,19.158c0,0 -1.093,0.153 -2.864,0.057c-0.735,-0.04 -1.464,-0.121 -2.182,-0.24c16.802,-2.088 19.551,-18.975 19.551,-18.975c1.61,-8.627 -0.354,-14.8 -2.887,-18.92c0.739,-1.23 1.231,-2.949 1.011,-5.332c-0.049,-0.529 0.549,-0.863 0.972,-0.542c3.059,2.327 10.923,9.909 8.145,24.794Z" style="fill:#ed7829;fill-rule:nonzero;"/></g></svg>