<?xml version="1.0" encoding="UTF-8" standalone="no"?>
<!DOCTYPE svg PUBLIC "-//W3C//DTD SVG 1.1//EN" "http://www.w3.org/Graphics/SVG/1.1/DTD/svg11.dtd">
<svg width="100%" height="100%" viewBox="0 0 64 64" version="1.1" xmlns="http://www.w3.org/2000/svg" xmlns:xlink="http://www.w3.org/1999/xlink" xml:space="preserve" style="fill-rule:evenodd;clip-rule:evenodd;stroke-linejoin:round;stroke-miterlimit:1.41421;">
    <rect id="Prancheta1" x="0" y="0" width="64" height="64" style="fill:none;"/>
    <clipPath id="_clip1">
        <rect id="Prancheta11" x="0" y="0" width="64" height="64"/>
    </clipPath>
    <g clip-path="url(#_clip1)">
        <g>
            <path d="M48.054,37.861c0,-2.888 0,-5.776 0,-8.664c0,-0.497 -0.414,-0.911 -0.911,-0.911l-24.382,0c0.303,0.303 0.607,0.607 0.911,0.911l0,-11.271c-0.304,0.303 -0.608,0.607 -0.911,0.911l24.382,0c0.497,0 0.911,-0.415 0.911,-0.911c0,-2.888 0,-5.777 0,-8.665c-0.518,0.215 -1.037,0.43 -1.555,0.645c1.875,1.88 3.751,3.76 5.626,5.641c2.619,2.626 5.239,5.253 7.858,7.879c0.259,0.26 0.518,0.52 0.777,0.779c0,-0.429 0,-0.859 0,-1.288c-1.875,1.88 -3.75,3.761 -5.625,5.641c-2.62,2.626 -5.239,5.253 -7.859,7.879c-0.259,0.26 -0.518,0.52 -0.777,0.78c-0.83,0.832 0.458,2.121 1.288,1.288c1.876,-1.88 3.751,-3.761 5.626,-5.641c2.62,-2.626 5.239,-5.253 7.859,-7.879c0.259,-0.26 0.518,-0.52 0.777,-0.78c0.351,-0.351 0.351,-0.936 0,-1.288c-1.875,-1.88 -3.751,-3.761 -5.626,-5.641c-2.62,-2.627 -5.239,-5.253 -7.858,-7.88c-0.259,-0.259 -0.519,-0.519 -0.778,-0.779c-0.561,-0.563 -1.555,-0.15 -1.555,0.644c0,2.888 0,5.776 0,8.665c0.304,-0.304 0.608,-0.608 0.911,-0.911l-24.382,0c-0.497,0 -0.911,0.414 -0.911,0.911l0,11.271c0,0.496 0.414,0.911 0.911,0.911l24.382,0c-0.304,-0.304 -0.607,-0.608 -0.911,-0.911c0,2.888 0,5.776 0,8.664c0,0.497 0.415,0.911 0.911,0.911c0.497,0 0.911,-0.414 0.911,-0.911Z" style="fill-rule:nonzero;"/>
            <path d="M17.768,54.729c0,-2.888 0,-5.776 0,-8.664c-0.304,0.304 -0.607,0.608 -0.911,0.911l24.382,0c0.497,0 0.911,-0.414 0.911,-0.911l0,-11.271c0,-0.497 -0.414,-0.911 -0.911,-0.911l-24.382,0c0.304,0.304 0.607,0.607 0.911,0.911c0,-2.888 0,-5.776 0,-8.664c0,-0.794 -0.994,-1.208 -1.555,-0.644c-1.876,1.88 -3.751,3.76 -5.626,5.641c-2.62,2.626 -5.239,5.253 -7.859,7.879c-0.259,0.26 -0.518,0.52 -0.777,0.78c-0.351,0.351 -0.351,0.936 0,1.288c1.875,1.88 3.751,3.761 5.626,5.641c2.62,2.626 5.239,5.253 7.858,7.879c0.26,0.26 0.519,0.52 0.778,0.78c0.83,0.832 2.118,-0.456 1.288,-1.289c-1.875,-1.88 -3.751,-3.76 -5.626,-5.641c-2.619,-2.626 -5.239,-5.253 -7.858,-7.879c-0.259,-0.26 -0.518,-0.52 -0.777,-0.779c0,0.429 0,0.858 0,1.288c1.875,-1.88 3.75,-3.761 5.626,-5.641c2.619,-2.627 5.238,-5.253 7.858,-7.88c0.259,-0.259 0.518,-0.519 0.777,-0.779c-0.518,-0.215 -1.037,-0.429 -1.555,-0.644c0,2.888 0,5.776 0,8.664c0,0.497 0.414,0.911 0.911,0.911l24.382,0c-0.303,-0.303 -0.607,-0.607 -0.911,-0.911l0,11.271c0.304,-0.303 0.608,-0.607 0.911,-0.911l-24.382,0c-0.497,0 -0.911,0.415 -0.911,0.911c0,2.888 0,5.776 0,8.665c0,0.496 0.414,0.911 0.911,0.911c0.497,0 0.911,-0.415 0.911,-0.912Z" style="fill-rule:nonzero;"/>
        </g>
    </g>
</svg>
