<?xml version="1.0" encoding="UTF-8" standalone="no"?>
<!DOCTYPE svg PUBLIC "-//W3C//DTD SVG 1.1//EN" "http://www.w3.org/Graphics/SVG/1.1/DTD/svg11.dtd">
<svg width="100%" height="100%" viewBox="0 0 32 32" version="1.1" xmlns="http://www.w3.org/2000/svg" xmlns:xlink="http://www.w3.org/1999/xlink" xml:space="preserve" xmlns:serif="http://www.serif.com/" style="fill-rule:evenodd;clip-rule:evenodd;stroke-linejoin:round;stroke-miterlimit:1.41421;">
    <path d="M16.185,0.631C23.381,0.758 30.028,6.378 31.174,13.53C32.098,19.291 29.427,25.467 24.572,28.75C24.232,28.981 24.223,28.98 23.863,29.198C17.95,32.702 9.814,31.655 5.007,26.733C1.256,22.891 -0.254,16.994 1.206,11.816C3.02,5.38 9.42,0.591 16.185,0.631ZM15.888,22.093C15.521,22.097 15.155,22.111 14.789,22.143C14.478,22.169 14.168,22.207 13.86,22.257C11.42,22.658 9.054,24.119 9.002,27.543C9.002,27.673 10.912,28.607 12.426,29.024C15.941,29.992 19.828,29.444 22.969,27.561C22.969,27.561 23.121,25.372 21.847,24.014C20.341,22.409 17.912,22.085 15.888,22.093ZM15.841,2.496C9.88,2.6 4.308,6.946 2.882,12.773C1.709,17.567 3.391,22.885 7.166,26.203C7.166,26.203 7.629,23.75 9.084,22.392C11.538,20.101 15.388,19.932 18.324,20.404C21.294,20.882 24.29,22.876 24.783,26.083C24.783,26.083 24.805,26.24 25.114,25.953C30.519,20.934 30.814,11.381 25.282,6.173C22.769,3.807 19.363,2.475 15.841,2.496ZM16.069,7.938C17.691,7.966 19.284,8.745 20.181,10.134C22.642,13.947 19.582,20.873 14.538,19.064C10.465,17.603 9.25,10.529 13.789,8.41C14.501,8.077 15.281,7.933 16.069,7.938ZM15.909,9.803C14.976,9.835 14.059,10.23 13.496,10.99C11.65,13.482 13.529,18.502 16.849,17.305C20.028,16.158 20.451,9.751 15.909,9.803Z" style="fill:rgb(102,102,102);"/>
</svg>
