<?xml version="1.0" encoding="UTF-8" standalone="no"?>
<!DOCTYPE svg PUBLIC "-//W3C//DTD SVG 1.1//EN" "http://www.w3.org/Graphics/SVG/1.1/DTD/svg11.dtd">
<svg width="100%" height="100%" viewBox="0 0 64 64" version="1.1" xmlns="http://www.w3.org/2000/svg" xmlns:xlink="http://www.w3.org/1999/xlink" xml:space="preserve" style="fill-rule:evenodd;clip-rule:evenodd;stroke-linejoin:round;stroke-miterlimit:1.41421;">
    <rect id="Prancheta1" x="0" y="0" width="64" height="64" style="fill:none;"/>
    <clipPath id="_clip1">
        <rect id="Prancheta11" x="0" y="0" width="64" height="64"/>
    </clipPath>
    <g clip-path="url(#_clip1)">
        <path d="M10.3,47.5l-3.1,0l0,-3.1l6.2,0l0,9.3l-3.1,0l0,-6.2Zm6.2,-3.1l6.2,0l0,3.1l-3.1,0l0,6.2l-3.1,0l0,-9.3Zm31,0l0,3.1l3.1,0l0,6.2l-6.2,0l0,-9.3l3.1,0Zm-21.7,-34.1l3.1,0l0,43.4l-3.1,0l0,-43.4Zm6.2,0l3.1,0l0,43.4l-3.1,0l0,-43.4Zm6.2,0l3.1,0l0,43.4l-3.1,0l0,-43.4Zm-37.2,0l3.1,0l0,43.4l-3.1,0l0,-43.4Zm58.9,0l3.1,0l0,43.4l-3.1,0l0,-43.4Zm-3.1,34.1l0,9.3l-3.1,0l0,-9.3l3.1,0Zm-49.6,-34.1l3.1,0l0,31l-3.1,0l0,-31Zm37.2,0l3.1,0l0,31l-3.1,0l0,-31Zm6.2,0l6.2,0l0,31l-6.2,0l0,-31Zm-37.2,0l9.3,0l0,31l-9.3,0l0,-31Z"/>
    </g>
</svg>
