<?xml version="1.0" encoding="UTF-8" standalone="no"?><!DOCTYPE svg PUBLIC "-//W3C//DTD SVG 1.1//EN" "http://www.w3.org/Graphics/SVG/1.1/DTD/svg11.dtd"><svg width="100%" height="100%" viewBox="0 0 24 24" version="1.1" xmlns="http://www.w3.org/2000/svg" xmlns:xlink="http://www.w3.org/1999/xlink" xml:space="preserve" style="fill-rule:evenodd;clip-rule:evenodd;stroke-linejoin:round;stroke-miterlimit:1.41421;"><rect id="Prancheta1" x="0" y="0" width="24" height="24" style="fill:none;"/><clipPath id="_clip1"><rect id="Prancheta11" x="0" y="0" width="24" height="24"/></clipPath><g clip-path="url(#_clip1)"><path d="M2.615,13.313l1.969,0l0,1.969c0,3.255 2.651,5.907 5.906,5.907c3.256,0 5.907,-2.652 5.907,-5.907l0,-1.969l1.313,0l0,-1.313l-1.313,0l0,-1.313l6.301,0l-3.938,-7.876l-6.038,0l-3.229,6.432l-0.709,1.444l6.301,0l0,1.313l-1.313,0l0,1.313l1.313,0l0,1.969c0,2.52 -2.074,4.594 -4.595,4.594c-2.52,0 -4.594,-2.074 -4.594,-4.594l0,-6.091c0.158,-0.079 0.289,-0.21 0.394,-0.341c0.157,-0.21 0.263,-0.499 0.263,-0.788c0,-0.735 -0.578,-1.313 -1.313,-1.313c-0.735,0 -1.313,0.578 -1.313,1.313c0,0.473 0.263,0.893 0.657,1.129l0,2.809l-1.969,0l0,-1.969l-1.313,0l0,5.251l1.313,0l0,-1.969Zm8.269,-3.938l2.626,-5.251l4.436,0l2.626,5.251l-9.688,0Z" style="fill:#fff;fill-rule:nonzero;"/></g></svg>