<?xml version="1.0" encoding="UTF-8" standalone="no"?><!DOCTYPE svg PUBLIC "-//W3C//DTD SVG 1.1//EN" "http://www.w3.org/Graphics/SVG/1.1/DTD/svg11.dtd"><svg width="100%" height="100%" viewBox="0 0 24 24" version="1.1" xmlns="http://www.w3.org/2000/svg" xmlns:xlink="http://www.w3.org/1999/xlink" xml:space="preserve" style="fill-rule:evenodd;clip-rule:evenodd;stroke-linejoin:round;stroke-miterlimit:1.41421;"><rect id="Prancheta1" x="0" y="0" width="24" height="24" style="fill:none;"/><clipPath id="_clip1"><rect id="Prancheta11" x="0" y="0" width="24" height="24"/></clipPath><g clip-path="url(#_clip1)"><path d="M12.656,11.344l0,-8.533l1.969,0l0,-1.312l-5.25,0l0,1.312l1.969,0l0,8.533l-11.158,0l0,0.656c0,1.601 1.129,2.914 2.652,3.229c0.341,5.041 5.067,5.802 7.849,5.933l0,0.027c0,0.735 0.578,1.312 1.313,1.312c0.735,0 1.313,-0.577 1.313,-1.312l0,-0.027c2.782,-0.131 7.508,-0.919 7.849,-5.959c1.523,-0.289 2.652,-1.602 2.652,-3.203l0,-0.656l-11.158,0Zm-1.759,1.312c-0.262,0.762 -0.997,1.313 -1.864,1.313c-0.866,0 -1.575,-0.551 -1.864,-1.313l3.728,0Zm-9.293,0l3.701,0c-0.262,0.762 -0.997,1.313 -1.863,1.313c-0.867,0 -1.549,-0.551 -1.838,-1.313Zm2.546,2.547c0.893,-0.184 1.654,-0.735 2.101,-1.497c0.472,0.762 1.233,1.313 2.126,1.497c0.026,1.207 0.158,3.15 0.971,4.515c-3.334,-0.446 -4.988,-1.89 -5.198,-4.515Zm7.194,4.568c-0.683,-0.263 -1.549,-1.182 -1.628,-4.568c0.63,-0.131 1.181,-0.446 1.628,-0.866l0,5.434Zm5.46,-7.115c-0.262,0.762 -0.997,1.313 -1.864,1.313c-0.866,0 -1.575,-0.551 -1.864,-1.313l3.728,0Zm-4.148,7.115l0,-5.434c0.447,0.446 0.998,0.735 1.628,0.866c-0.079,3.413 -0.945,4.332 -1.628,4.568Zm1.969,-0.053c0.84,-1.339 0.972,-3.281 0.972,-4.515c0.892,-0.184 1.68,-0.735 2.126,-1.497c0.473,0.762 1.208,1.313 2.1,1.497c-0.183,2.625 -1.837,4.069 -5.198,4.515Zm7.771,-7.062c-0.262,0.762 -0.997,1.313 -1.864,1.313c-0.866,0 -1.575,-0.551 -1.864,-1.313l3.728,0Z" style="fill:#fff;fill-rule:nonzero;"/></g></svg>