<?xml version="1.0" encoding="UTF-8" standalone="no"?>
<!DOCTYPE svg PUBLIC "-//W3C//DTD SVG 1.1//EN" "http://www.w3.org/Graphics/SVG/1.1/DTD/svg11.dtd">
<svg width="100%" height="100%" viewBox="0 0 64 64" version="1.1" xmlns="http://www.w3.org/2000/svg" xmlns:xlink="http://www.w3.org/1999/xlink" xml:space="preserve" style="fill-rule:evenodd;clip-rule:evenodd;stroke-linejoin:round;stroke-miterlimit:1.41421;">
    <rect id="Prancheta1" x="0" y="0" width="64" height="64" style="fill:none;"/>
    <clipPath id="_clip1">
        <rect id="Prancheta11" x="0" y="0" width="64" height="64"/>
    </clipPath>
    <g clip-path="url(#_clip1)">
        <path d="M6.629,15.321c9.095,-3.292 17.647,-7.925 25.371,-13.746c7.725,5.82 16.276,10.454 25.371,13.746c-0.084,14.413 -2.782,25.163 -8.293,32.885c-4.48,6.231 -10.231,9.875 -15.781,13.402l-1.297,0.817l-1.297,-0.817c-5.55,-3.527 -11.301,-7.171 -15.781,-13.402c-5.505,-7.716 -8.209,-18.459 -8.293,-32.885Zm48.122,1.763c-8.086,-3.084 -15.735,-7.212 -22.751,-12.28c-7.015,5.069 -14.664,9.197 -22.751,12.28c0.272,12.968 2.826,22.693 7.78,29.585c4.156,5.81 9.648,9.318 14.971,12.683c5.323,-3.365 10.815,-6.873 14.971,-12.702c4.96,-6.931 7.508,-16.598 7.78,-29.566Zm-28.943,19.406c-3.243,-2.095 -5.206,-5.702 -5.206,-9.563c0,-6.246 5.139,-11.385 11.385,-11.385c6.246,0 11.385,5.139 11.385,11.385c0,3.861 -1.963,7.468 -5.206,9.563l0.409,10.834c0.018,0.66 -0.368,1.267 -0.973,1.531c-0.58,0.248 -1.256,0.125 -1.712,-0.312l-3.89,-3.358l-3.955,3.41c-0.281,0.258 -0.65,0.4 -1.031,0.396c0,0 0,0 0,0c-0.879,0 -1.602,-0.723 -1.602,-1.602c0,-0.004 0,-0.008 0.001,-0.013l0.408,-10.886l-0.013,0Zm10.082,8.636l-2.853,-2.457c-0.592,-0.538 -1.508,-0.538 -2.1,0l-2.827,2.464l0.279,-7.411c2.353,0.805 4.908,0.805 7.261,0l0.24,7.404Zm-3.89,-26.972c-4.819,0.004 -8.785,3.966 -8.792,8.785c0,0.003 0,0.005 0,0.007c0,4.823 3.969,8.792 8.792,8.792c4.823,0 8.792,-3.969 8.792,-8.792c0,-4.823 -3.969,-8.792 -8.792,-8.792Zm5.025,6.801l-1.835,-1.834l-4.338,4.344l-2.042,-2.049l-1.835,1.835l3.877,3.877l6.173,-6.173Z"/>
    </g>
</svg>
