<?xml version="1.0" encoding="UTF-8" standalone="no"?><!DOCTYPE svg PUBLIC "-//W3C//DTD SVG 1.1//EN" "http://www.w3.org/Graphics/SVG/1.1/DTD/svg11.dtd"><svg width="100%" height="100%" viewBox="0 0 24 24" version="1.1" xmlns="http://www.w3.org/2000/svg" xmlns:xlink="http://www.w3.org/1999/xlink" xml:space="preserve" style="fill-rule:evenodd;clip-rule:evenodd;stroke-linejoin:round;stroke-miterlimit:1.41421;"><rect id="Prancheta1" x="0" y="0" width="24" height="24" style="fill:none;"/><clipPath id="_clip1"><rect id="Prancheta11" x="0" y="0" width="24" height="24"/></clipPath><g clip-path="url(#_clip1)"><path d="M1.549,19.23l6.822,0c0,1.995 1.626,3.615 3.629,3.615c2.003,0 3.629,-1.62 3.629,-3.615l6.822,0l-9.725,-9.688l0,-6.941l2.177,0l0,-1.446l-5.806,0l0,1.446l2.177,0l0,6.941l-9.725,9.688Zm10.451,2.169c-1.19,0 -2.177,-0.983 -2.177,-2.169l4.354,0c0,1.186 -0.987,2.169 -2.177,2.169Zm0,-10.556l6.967,6.941l-13.934,0l6.967,-6.941Z" style="fill:#fff;fill-rule:nonzero;"/></g></svg>