<?xml version="1.0" encoding="UTF-8" standalone="no"?><!DOCTYPE svg PUBLIC "-//W3C//DTD SVG 1.1//EN" "http://www.w3.org/Graphics/SVG/1.1/DTD/svg11.dtd"><svg width="100%" height="100%" viewBox="0 0 24 24" version="1.1" xmlns="http://www.w3.org/2000/svg" xmlns:xlink="http://www.w3.org/1999/xlink" xml:space="preserve" style="fill-rule:evenodd;clip-rule:evenodd;stroke-linecap:round;stroke-miterlimit:10;"><rect id="Prancheta1" x="0" y="0" width="24" height="24" style="fill:none;"/><clipPath id="_clip1"><rect id="Prancheta11" x="0" y="0" width="24" height="24"/></clipPath><g clip-path="url(#_clip1)"><g><path d="M8.505,12.167c2.105,0 4.209,0 6.314,0c-0.361,0.856 -0.662,2.065 -0.301,3.374c0.541,1.763 1.924,2.216 1.864,3.626c-0.12,1.561 -1.984,2.569 -2.165,2.669c-1.323,0.655 -3.247,0.857 -4.75,0c-1.323,-0.755 -1.924,-2.064 -1.864,-3.122c0.06,-1.41 1.263,-1.813 1.563,-3.374c0.301,-1.31 -0.18,-2.418 -0.661,-3.173Z" style="fill:none;stroke:#fff;stroke-width:1.33px;"/><path d="M12.943,6.909c-0.207,-0.207 -0.704,-0.745 -0.911,-1.614c-0.289,-1.283 0.331,-2.276 0.455,-2.483l1.738,-1.407c0.166,0.166 0.373,0.414 0.538,0.704c0.207,0.372 0.29,0.703 0.331,0.952c0.207,-0.083 0.497,-0.207 0.911,-0.207c0.579,-0.042 0.993,0.165 1.241,0.248c-0.165,0.786 -0.372,1.572 -0.538,2.317c-0.165,0.993 -1.034,1.697 -2.027,1.655c-0.414,0 -0.869,-0.041 -1.283,-0.041" style="fill:none;stroke:#fff;stroke-width:0.93px;"/><path d="M10.046,6.33c0.083,-0.538 -0.372,-0.993 -0.497,-1.118c-0.703,-0.62 -1.448,-0.248 -2.565,-0.786c-0.538,-0.248 -0.869,-0.579 -1.076,-0.827c-0.703,2.234 -0.455,4.22 0.579,4.924c0.373,0.248 1.242,0.579 1.821,0.124c0.579,-0.414 0.538,-1.324 0.538,-1.407c0.662,-0.083 1.117,-0.455 1.2,-0.91Z" style="fill:none;stroke:#fff;stroke-width:0.93px;"/><path d="M9.094,7.447c0.497,0.414 1.159,1.034 1.78,1.945c0.413,0.662 0.744,0.786 0.951,1.365" style="fill:none;stroke:#fff;stroke-width:0.93px;"/><path d="M12.984,7.447c-0.29,0.29 -0.621,0.745 -0.91,1.407c-0.414,0.993 -0.373,1.365 -0.331,1.821" style="fill:#f9f9f9;fill-rule:nonzero;stroke:#fff;stroke-width:1.24px;"/></g></g></svg>